# xmcd CD database file
#
# Track frame offsets:
#	150
#	20966
#	36121
#	66914
#	89844
#	112370
#	136661
#	163166
#	177921
#	205513
#	231426
#	247642
#	268150
#
# Disc length: 3823 seconds
#
# Revision: 0
# Processed by: cddbd v1.5.2PL0 Copyright (c) Steve Scherf et al.
# Submitted via: CDex 1.70beta2
#
DISCID=be0eed0d
DTITLE=Julian and Roman Wasserfuhr - Running
DYEAR=2013
DGENRE=Jazz
TTITLE0=Weary Journey
TTITLE1=Bachelor (Over the Ear Look)
TTITLE2=Behind Blue Eyes
TTITLE3=Adonis
TTITLE4=Stoned Remote
TTITLE5=Nowhere Man
TTITLE6=7 Gegner
TTITLE7=Rocholz-Korosak
TTITLE8=Go On
TTITLE9=Joy and Sorrow
TTITLE10=Hilmar
TTITLE11=Uncertainty
TTITLE12=See you again
EXTD=YEAR: 2013
EXTT0=
EXTT1=
EXTT2=
EXTT3=
EXTT4=
EXTT5=
EXTT6=
EXTT7=
EXTT8=
EXTT9=
EXTT10=
EXTT11=
EXTT12=
PLAYORDER=
